<mxfile host="app.diagrams.net" agent="Mozilla/5.0 (Macintosh; Intel Mac OS X 10_15_7) AppleWebKit/537.36 (KHTML, like Gecko) Chrome/136.0.0.0 Safari/537.36" version="27.0.4">
  <diagram name="Page-1" id="Jhbu4yCtua0mN_Y6MsKm">
    <mxGraphModel dx="1180" dy="689" grid="1" gridSize="10" guides="1" tooltips="1" connect="1" arrows="1" fold="1" page="0" pageScale="1" pageWidth="850" pageHeight="1100" math="0" shadow="0">
      <root>
        <mxCell id="0" />
        <mxCell id="1" parent="0" />
        <mxCell id="0AJjHzSgEPNoFQpwUvEJ-1" value="A user can send and recieve messages&lt;div&gt;Allow for 1 on 1 and group chats (100 mem)&lt;/div&gt;&lt;div&gt;Push notification for offline users&lt;br&gt;&lt;div&gt;&lt;br&gt;&lt;/div&gt;&lt;/div&gt;" style="rounded=0;whiteSpace=wrap;html=1;" vertex="1" parent="1">
          <mxGeometry x="20" y="90" width="380" height="160" as="geometry" />
        </mxCell>
        <mxCell id="0AJjHzSgEPNoFQpwUvEJ-2" value="1. durable&amp;nbsp;&lt;div&gt;2. scalable&lt;/div&gt;&lt;div&gt;3. Low latency&amp;nbsp;&lt;/div&gt;&lt;div&gt;4. Highly avaiable&lt;/div&gt;&lt;div&gt;5. Eventual consistency&lt;/div&gt;&lt;div&gt;&lt;br&gt;&lt;/div&gt;" style="rounded=0;whiteSpace=wrap;html=1;" vertex="1" parent="1">
          <mxGeometry x="20" y="310" width="380" height="170" as="geometry" />
        </mxCell>
        <mxCell id="0AJjHzSgEPNoFQpwUvEJ-3" value="send_message (Client -&amp;gt; server) {room_id, content}&lt;div&gt;receive_message (server-&amp;gt;client) {content}&lt;/div&gt;&lt;div&gt;POST /api/groups/create (body, response)&lt;/div&gt;&lt;div&gt;POST /api/groups/add&amp;nbsp;&lt;/div&gt;&lt;div&gt;POST /api/groups/remove&lt;/div&gt;&lt;div&gt;&lt;br&gt;&lt;/div&gt;" style="rounded=0;whiteSpace=wrap;html=1;" vertex="1" parent="1">
          <mxGeometry x="20" y="530" width="380" height="110" as="geometry" />
        </mxCell>
        <mxCell id="0AJjHzSgEPNoFQpwUvEJ-6" style="edgeStyle=orthogonalEdgeStyle;rounded=0;orthogonalLoop=1;jettySize=auto;html=1;" edge="1" parent="1" source="0AJjHzSgEPNoFQpwUvEJ-4" target="0AJjHzSgEPNoFQpwUvEJ-11">
          <mxGeometry relative="1" as="geometry">
            <mxPoint x="690" y="300" as="targetPoint" />
          </mxGeometry>
        </mxCell>
        <mxCell id="0AJjHzSgEPNoFQpwUvEJ-4" value="User A" style="shape=umlActor;verticalLabelPosition=bottom;verticalAlign=top;html=1;outlineConnect=0;" vertex="1" parent="1">
          <mxGeometry x="570" y="270" width="30" height="60" as="geometry" />
        </mxCell>
        <mxCell id="0AJjHzSgEPNoFQpwUvEJ-8" style="edgeStyle=orthogonalEdgeStyle;rounded=0;orthogonalLoop=1;jettySize=auto;html=1;entryX=0.25;entryY=0;entryDx=0;entryDy=0;" edge="1" parent="1" source="0AJjHzSgEPNoFQpwUvEJ-5" target="0AJjHzSgEPNoFQpwUvEJ-11">
          <mxGeometry relative="1" as="geometry">
            <mxPoint x="710" y="395" as="targetPoint" />
          </mxGeometry>
        </mxCell>
        <mxCell id="0AJjHzSgEPNoFQpwUvEJ-5" value="User B" style="shape=umlActor;verticalLabelPosition=bottom;verticalAlign=top;html=1;outlineConnect=0;" vertex="1" parent="1">
          <mxGeometry x="570" y="365" width="30" height="60" as="geometry" />
        </mxCell>
        <mxCell id="0AJjHzSgEPNoFQpwUvEJ-7" value="" style="shape=trapezoid;perimeter=trapezoidPerimeter;whiteSpace=wrap;html=1;fixedSize=1;direction=south;" vertex="1" parent="1">
          <mxGeometry x="800" y="50" width="60" height="200" as="geometry" />
        </mxCell>
        <mxCell id="0AJjHzSgEPNoFQpwUvEJ-13" style="edgeStyle=orthogonalEdgeStyle;rounded=0;orthogonalLoop=1;jettySize=auto;html=1;entryX=0.5;entryY=0;entryDx=0;entryDy=0;" edge="1" parent="1" source="0AJjHzSgEPNoFQpwUvEJ-11" target="0AJjHzSgEPNoFQpwUvEJ-12">
          <mxGeometry relative="1" as="geometry" />
        </mxCell>
        <mxCell id="0AJjHzSgEPNoFQpwUvEJ-16" style="edgeStyle=orthogonalEdgeStyle;rounded=0;orthogonalLoop=1;jettySize=auto;html=1;" edge="1" parent="1" source="0AJjHzSgEPNoFQpwUvEJ-11" target="0AJjHzSgEPNoFQpwUvEJ-15">
          <mxGeometry relative="1" as="geometry" />
        </mxCell>
        <mxCell id="0AJjHzSgEPNoFQpwUvEJ-11" value="Chat Service" style="rounded=0;whiteSpace=wrap;html=1;" vertex="1" parent="1">
          <mxGeometry x="860" y="450" width="140" height="60" as="geometry" />
        </mxCell>
        <mxCell id="0AJjHzSgEPNoFQpwUvEJ-12" value="Unique ID service" style="ellipse;whiteSpace=wrap;html=1;" vertex="1" parent="1">
          <mxGeometry x="860" y="570" width="120" height="80" as="geometry" />
        </mxCell>
        <mxCell id="0AJjHzSgEPNoFQpwUvEJ-14" value="Zookeeper" style="rounded=0;whiteSpace=wrap;html=1;" vertex="1" parent="1">
          <mxGeometry x="960" y="170" width="120" height="60" as="geometry" />
        </mxCell>
        <mxCell id="0AJjHzSgEPNoFQpwUvEJ-21" style="edgeStyle=orthogonalEdgeStyle;rounded=0;orthogonalLoop=1;jettySize=auto;html=1;" edge="1" parent="1" source="0AJjHzSgEPNoFQpwUvEJ-15" target="0AJjHzSgEPNoFQpwUvEJ-20">
          <mxGeometry relative="1" as="geometry" />
        </mxCell>
        <mxCell id="0AJjHzSgEPNoFQpwUvEJ-28" style="edgeStyle=orthogonalEdgeStyle;rounded=0;orthogonalLoop=1;jettySize=auto;html=1;exitX=0.75;exitY=1;exitDx=0;exitDy=0;entryX=0.5;entryY=0;entryDx=0;entryDy=0;" edge="1" parent="1" source="0AJjHzSgEPNoFQpwUvEJ-15" target="0AJjHzSgEPNoFQpwUvEJ-30">
          <mxGeometry relative="1" as="geometry">
            <mxPoint x="1190" y="510" as="targetPoint" />
          </mxGeometry>
        </mxCell>
        <mxCell id="0AJjHzSgEPNoFQpwUvEJ-15" value="" style="shape=step;perimeter=stepPerimeter;whiteSpace=wrap;html=1;fixedSize=1;" vertex="1" parent="1">
          <mxGeometry x="1050" y="440" width="120" height="80" as="geometry" />
        </mxCell>
        <mxCell id="0AJjHzSgEPNoFQpwUvEJ-17" value="Message DB" style="shape=cylinder3;whiteSpace=wrap;html=1;boundedLbl=1;backgroundOutline=1;size=15;" vertex="1" parent="1">
          <mxGeometry x="1000" y="670" width="60" height="80" as="geometry" />
        </mxCell>
        <mxCell id="0AJjHzSgEPNoFQpwUvEJ-22" style="edgeStyle=orthogonalEdgeStyle;rounded=0;orthogonalLoop=1;jettySize=auto;html=1;" edge="1" parent="1" source="0AJjHzSgEPNoFQpwUvEJ-20" target="0AJjHzSgEPNoFQpwUvEJ-17">
          <mxGeometry relative="1" as="geometry" />
        </mxCell>
        <mxCell id="0AJjHzSgEPNoFQpwUvEJ-20" value="Worker" style="ellipse;whiteSpace=wrap;html=1;" vertex="1" parent="1">
          <mxGeometry x="1020" y="550" width="60" height="80" as="geometry" />
        </mxCell>
        <mxCell id="0AJjHzSgEPNoFQpwUvEJ-24" style="edgeStyle=orthogonalEdgeStyle;rounded=0;orthogonalLoop=1;jettySize=auto;html=1;" edge="1" parent="1" source="0AJjHzSgEPNoFQpwUvEJ-23" target="0AJjHzSgEPNoFQpwUvEJ-11">
          <mxGeometry relative="1" as="geometry" />
        </mxCell>
        <mxCell id="0AJjHzSgEPNoFQpwUvEJ-26" style="edgeStyle=orthogonalEdgeStyle;rounded=0;orthogonalLoop=1;jettySize=auto;html=1;" edge="1" parent="1" source="0AJjHzSgEPNoFQpwUvEJ-23" target="0AJjHzSgEPNoFQpwUvEJ-25">
          <mxGeometry relative="1" as="geometry" />
        </mxCell>
        <mxCell id="0AJjHzSgEPNoFQpwUvEJ-23" value="Discovery Service" style="ellipse;whiteSpace=wrap;html=1;" vertex="1" parent="1">
          <mxGeometry x="670" y="450" width="120" height="70" as="geometry" />
        </mxCell>
        <mxCell id="0AJjHzSgEPNoFQpwUvEJ-25" value="" style="shape=cylinder3;whiteSpace=wrap;html=1;boundedLbl=1;backgroundOutline=1;size=15;" vertex="1" parent="1">
          <mxGeometry x="690" y="570" width="60" height="80" as="geometry" />
        </mxCell>
        <mxCell id="0AJjHzSgEPNoFQpwUvEJ-27" style="edgeStyle=orthogonalEdgeStyle;rounded=0;orthogonalLoop=1;jettySize=auto;html=1;entryX=1.004;entryY=0.3;entryDx=0;entryDy=0;entryPerimeter=0;" edge="1" parent="1" source="0AJjHzSgEPNoFQpwUvEJ-11" target="0AJjHzSgEPNoFQpwUvEJ-23">
          <mxGeometry relative="1" as="geometry" />
        </mxCell>
        <mxCell id="0AJjHzSgEPNoFQpwUvEJ-32" style="edgeStyle=orthogonalEdgeStyle;rounded=0;orthogonalLoop=1;jettySize=auto;html=1;entryX=0.861;entryY=0.983;entryDx=0;entryDy=0;entryPerimeter=0;" edge="1" parent="1" source="0AJjHzSgEPNoFQpwUvEJ-30" target="0AJjHzSgEPNoFQpwUvEJ-11">
          <mxGeometry relative="1" as="geometry">
            <mxPoint x="1290" y="360" as="targetPoint" />
          </mxGeometry>
        </mxCell>
        <mxCell id="0AJjHzSgEPNoFQpwUvEJ-35" value="" style="edgeStyle=orthogonalEdgeStyle;rounded=0;orthogonalLoop=1;jettySize=auto;html=1;" edge="1" parent="1" source="0AJjHzSgEPNoFQpwUvEJ-30" target="0AJjHzSgEPNoFQpwUvEJ-34">
          <mxGeometry relative="1" as="geometry" />
        </mxCell>
        <mxCell id="0AJjHzSgEPNoFQpwUvEJ-30" value="Worker" style="ellipse;whiteSpace=wrap;html=1;aspect=fixed;" vertex="1" parent="1">
          <mxGeometry x="1150" y="560" width="80" height="80" as="geometry" />
        </mxCell>
        <mxCell id="0AJjHzSgEPNoFQpwUvEJ-31" style="edgeStyle=orthogonalEdgeStyle;rounded=0;orthogonalLoop=1;jettySize=auto;html=1;entryX=0.779;entryY=0.971;entryDx=0;entryDy=0;entryPerimeter=0;" edge="1" parent="1" source="0AJjHzSgEPNoFQpwUvEJ-30" target="0AJjHzSgEPNoFQpwUvEJ-23">
          <mxGeometry relative="1" as="geometry" />
        </mxCell>
        <mxCell id="0AJjHzSgEPNoFQpwUvEJ-33" style="edgeStyle=orthogonalEdgeStyle;rounded=0;orthogonalLoop=1;jettySize=auto;html=1;exitX=0.75;exitY=0;exitDx=0;exitDy=0;entryX=1;entryY=1;entryDx=0;entryDy=0;entryPerimeter=0;" edge="1" parent="1" source="0AJjHzSgEPNoFQpwUvEJ-11" target="0AJjHzSgEPNoFQpwUvEJ-5">
          <mxGeometry relative="1" as="geometry" />
        </mxCell>
        <mxCell id="0AJjHzSgEPNoFQpwUvEJ-37" style="edgeStyle=orthogonalEdgeStyle;rounded=0;orthogonalLoop=1;jettySize=auto;html=1;" edge="1" parent="1" source="0AJjHzSgEPNoFQpwUvEJ-34" target="0AJjHzSgEPNoFQpwUvEJ-5">
          <mxGeometry relative="1" as="geometry" />
        </mxCell>
        <mxCell id="0AJjHzSgEPNoFQpwUvEJ-34" value="PN Service" style="whiteSpace=wrap;html=1;" vertex="1" parent="1">
          <mxGeometry x="1130" y="730" width="120" height="60" as="geometry" />
        </mxCell>
        <mxCell id="0AJjHzSgEPNoFQpwUvEJ-38" value="message DB&lt;div&gt;message_id (SK)&lt;/div&gt;&lt;div&gt;sender_id&lt;/div&gt;&lt;div&gt;room_id (PK)&lt;/div&gt;&lt;div&gt;content&lt;/div&gt;&lt;div&gt;created_at&lt;/div&gt;" style="rounded=0;whiteSpace=wrap;html=1;" vertex="1" parent="1">
          <mxGeometry x="1330" y="290" width="270" height="100" as="geometry" />
        </mxCell>
        <mxCell id="0AJjHzSgEPNoFQpwUvEJ-40" style="edgeStyle=orthogonalEdgeStyle;rounded=0;orthogonalLoop=1;jettySize=auto;html=1;" edge="1" parent="1" source="0AJjHzSgEPNoFQpwUvEJ-39" target="0AJjHzSgEPNoFQpwUvEJ-41">
          <mxGeometry relative="1" as="geometry">
            <mxPoint x="1150" y="90" as="targetPoint" />
          </mxGeometry>
        </mxCell>
        <mxCell id="0AJjHzSgEPNoFQpwUvEJ-39" value="" style="rounded=0;whiteSpace=wrap;html=1;" vertex="1" parent="1">
          <mxGeometry x="960" y="60" width="120" height="60" as="geometry" />
        </mxCell>
        <mxCell id="0AJjHzSgEPNoFQpwUvEJ-41" value="" style="shape=cylinder3;whiteSpace=wrap;html=1;boundedLbl=1;backgroundOutline=1;size=15;" vertex="1" parent="1">
          <mxGeometry x="1120" y="50" width="60" height="80" as="geometry" />
        </mxCell>
        <mxCell id="0AJjHzSgEPNoFQpwUvEJ-43" value="group db&lt;div&gt;room_id&lt;/div&gt;&lt;div&gt;members:&amp;nbsp;&lt;/div&gt;" style="rounded=0;whiteSpace=wrap;html=1;" vertex="1" parent="1">
          <mxGeometry x="1250" y="60" width="250" height="110" as="geometry" />
        </mxCell>
        <mxCell id="0AJjHzSgEPNoFQpwUvEJ-44" value="snowflake a lib" style="whiteSpace=wrap;html=1;" vertex="1" parent="1">
          <mxGeometry x="680" y="870" width="120" height="60" as="geometry" />
        </mxCell>
      </root>
    </mxGraphModel>
  </diagram>
</mxfile>
